<?xml version="1.0" standalone="no"?>
<!DOCTYPE svg PUBLIC "-//W3C//DTD SVG 20010904//EN"
 "http://www.w3.org/TR/2001/REC-SVG-20010904/DTD/svg10.dtd">
<svg version="1.0" xmlns="http://www.w3.org/2000/svg"
 width="1080.000000pt" height="1080.000000pt" viewBox="0 0 1080.000000 1080.000000"
 preserveAspectRatio="xMidYMid meet">
<metadata>
Created by potrace 1.14, written by Peter Selinger 2001-2017
</metadata>
<g transform="translate(0.000000,1080.000000) scale(0.100000,-0.100000)"
fill="#000000" stroke="none">
<path d="M5128 10795 c-1 -1 -55 -6 -118 -9 -63 -4 -122 -9 -130 -11 -8 -2
-47 -6 -86 -10 -61 -5 -309 -41 -409 -60 -74 -14 -174 -35 -186 -40 -8 -2 -25
-6 -39 -9 -14 -2 -45 -9 -70 -16 -25 -7 -52 -13 -60 -15 -23 -5 -233 -65 -250
-72 -8 -3 -19 -7 -25 -8 -53 -12 -370 -131 -480 -180 -70 -31 -108 -48 -115
-49 -3 -1 -70 -34 -150 -73 -228 -113 -453 -245 -665 -390 -102 -70 -335 -245
-366 -275 -8 -8 -26 -22 -40 -33 -159 -123 -544 -510 -705 -710 -27 -33 -54
-67 -61 -75 -7 -8 -35 -44 -62 -80 -28 -36 -55 -70 -60 -76 -4 -5 -14 -21 -21
-35 -7 -13 -16 -26 -20 -29 -9 -7 -170 -240 -170 -246 0 -3 -13 -24 -28 -47
-130 -190 -349 -635 -467 -947 -92 -242 -206 -635 -228 -785 -3 -16 -9 -48
-15 -70 -6 -22 -13 -56 -16 -75 -2 -19 -9 -62 -15 -95 -16 -87 -25 -158 -36
-265 -4 -36 -8 -76 -11 -90 -25 -156 -25 -818 1 -1037 1 -16 6 -59 10 -96 3
-37 8 -78 11 -90 5 -28 12 -81 19 -137 3 -25 10 -67 15 -95 77 -383 93 -446
179 -715 60 -187 146 -415 208 -550 99 -215 247 -496 327 -620 139 -215 193
-294 277 -408 55 -72 110 -144 123 -160 13 -15 67 -79 121 -142 54 -63 175
-192 269 -285 195 -194 222 -219 404 -370 14 -11 30 -25 36 -30 82 -74 426
-313 606 -421 337 -202 753 -390 1125 -509 129 -41 417 -118 485 -130 19 -3
51 -10 70 -15 19 -5 53 -11 75 -14 22 -4 63 -11 90 -16 54 -10 84 -15 155 -25
96 -13 116 -15 160 -20 25 -3 65 -7 89 -10 126 -14 274 -20 526 -20 277 0 454
9 615 30 25 4 59 8 75 10 17 2 53 7 80 11 28 4 57 8 65 9 29 4 131 22 170 30
14 3 36 7 50 10 101 19 182 38 350 81 8 2 47 13 85 24 39 12 78 23 88 25 9 2
22 7 27 10 5 3 18 8 27 10 101 20 506 182 723 288 145 71 407 214 465 254 11
7 81 53 155 102 74 48 158 106 187 127 28 21 61 46 74 54 40 28 212 167 324
263 65 57 396 385 461 457 22 25 73 86 114 135 41 50 77 92 80 95 3 3 39 50
80 105 41 55 78 102 81 105 9 8 229 340 229 345 0 3 17 34 39 68 136 219 314
592 416 873 26 71 48 134 49 139 1 6 4 15 8 20 3 6 29 87 56 180 67 229 120
464 152 670 14 88 21 135 25 155 2 9 6 53 10 96 4 43 8 90 11 104 30 179 24
862 -10 1125 -14 109 -17 132 -21 155 -2 14 -11 70 -20 125 -8 55 -23 134 -31
175 -9 41 -20 94 -25 116 -26 129 -100 389 -160 564 -22 63 -42 120 -43 125
-2 6 -8 21 -13 35 -6 14 -27 66 -47 116 -114 293 -326 691 -526 989 -74 111
-252 352 -274 370 -6 6 -23 26 -37 45 -28 36 -32 41 -126 150 -81 92 -384 394
-473 471 -41 35 -77 66 -80 69 -18 19 -134 112 -240 191 -248 187 -513 354
-781 491 -174 89 -365 178 -383 178 -6 0 -16 4 -22 8 -15 14 -245 100 -404
152 -126 41 -417 120 -495 134 -16 3 -64 12 -105 21 -41 8 -88 18 -105 20 -16
3 -41 8 -55 10 -14 3 -39 7 -56 9 -17 2 -64 9 -105 15 -115 16 -166 22 -329
37 -56 6 -677 14 -682 9z"/>
</g>
</svg>
